# xmcd CD database file
#
# Track frame offsets:
#	182
#	14030
#	28547
#	47045
#	63285
#	75572
#	90437
#	105175
#	122576
#	136130
#	148015
#	159522
#	172845
#	186297
#	198087
#	213354
#	227935
#	240204
#
# Disc length: 3383 seconds
#
# Revision: 2
# Processed by: cddbd v1.5.2PL0 Copyright (c) Steve Scherf et al.
# Submitted via: CDex 1.70beta2
#
DISCID=dd0d3512
DTITLE=Chet Atkins - THE BEST OF ORIGINAL HITS
DYEAR=2003
DGENRE=Country
TTITLE0=ON THE ROAD AGAIN (Willie Nelson)
TTITLE1=TENDERLY (Walter Gross/Jack Lawrence)
TTITLE2=ORANGE BLOSSOM SPECIAL (Erwin T.Rouse)
TTITLE3=RODRIGO CONCERTO (Joaquin Rodrigo)
TTITLE4=TAKE FIVE (Paul Desmond)
TTITLE5=CARAVAN (E.Ellington/J.Tizol)
TTITLE6=VINCENT (Don McLean)
TTITLE7=MOSTRY MOZART (Mozart)
TTITLE8=STORMS NEVER LAST (Jessi Colter)
TTITLE9=LIMEHOUSE BLUES (Douglas Furber)
TTITLE10=OVER THE WAVES (Traditional)
TTITLE11=IT DON'T MEAN A THING (if it ain't got that Swing) (E.Ellington/Irving Mills)
TTITLE12=BRANDENBURG (Bach)
TTITLE13=STRUTTIN' (Jerry R.Hubbard)
TTITLE14=I'LL SEE YOU IN MY DREAMS (Isham Jones/Gus Kahn)
TTITLE15=HEART OF GLASS (Chris Stein/Deborah Harry)
TTITLE16=MEDLEY: BLACK AND WHITE (Chet Atkins) RAGTIME ANNIE (Doc Watson)
TTITLE17=HOT TODDY ( Ralph Flannigan/Herb Hendier)
EXTD=1993 BMG Music YEAR: 2003
EXTT0=
EXTT1=
EXTT2=
EXTT3=
EXTT4=
EXTT5=
EXTT6=
EXTT7=
EXTT8=
EXTT9=
EXTT10=
EXTT11=
EXTT12=
EXTT13=
EXTT14=
EXTT15=
EXTT16=
EXTT17=
PLAYORDER=
